<?xml version="1.0" encoding="UTF-8"?>
<svg class="css-5yjtbz" version="1.1" viewBox="0 0 369.8 119.93" xmlns="http://www.w3.org/2000/svg" xmlns:cc="http://creativecommons.org/ns#" xmlns:dc="http://purl.org/dc/elements/1.1/" xmlns:rdf="http://www.w3.org/1999/02/22-rdf-syntax-ns#">
<metadata>
<rdf:RDF>
<cc:Work rdf:about="">
<dc:format>image/svg+xml</dc:format>
<dc:type rdf:resource="http://purl.org/dc/dcmitype/StillImage"/>
<dc:title/>
</cc:Work>
</rdf:RDF>
</metadata>
<g transform="matrix(1.2598 0 0 1.2598 -19.891 -1.028)" fill="#fff" featurekey="QMusi1-0">
<path d="m69.974 34.035v3.929c6.803 5.711 11.137 14.275 11.137 23.833 0 10.928-5.665 20.556-14.211 26.105v-28.815l-9.219-5.079v37.938c-1.005 0.256-2.03 0.463-3.071 0.618v-58.51l-9.217-5.082v63.591c-1.042-0.155-2.067-0.362-3.073-0.618v-82.874l-9.217-5.08v83.912c-8.547-5.55-14.211-15.179-14.211-26.106 0-9.558 4.333-18.122 11.138-23.833v-3.929c-8.619 6.218-14.241 16.345-14.241 27.762 0 18.864 15.348 34.212 34.212 34.212 18.865 0 34.213-15.348 34.213-34.212-1e-3 -11.417-5.623-21.544-14.24-27.762z" fill="#fff"/>
</g>
<g transform="matrix(2.2299 0 0 2.2299 105.2 39.736)" fill="#fff" featurekey="UyNsn2-0">
<path d="m3.78 8.54h-3.42v-2.84h10.3l-0.46 1.4-0.46 1.44h-2.68l0.06 0.56v10.9h-3.34v-11.46zm9.88-0.34h-1.42l1.3-2.48h4.4l4.48 14.28h-3.44l-0.8-2.86-0.78 0.06h-2.78l-0.68-0.06-0.82 2.86h-3.22zm3.74 6.22-1.32-4.76-1.4 4.76h2.72zm4.44-8.72 3.5-1.9531e-5 2.78 9.8 0.12 0.56 0.04-0.28c0-0.06666 0.01334-0.12666 0.04-0.18 0.01334-0.02666 0.02-0.05332 0.02-0.07998l2.82-9.82h3.38l-4.62 14.3h-3.5zm13.98 0h8.42c-0.13334 0.50666-0.26668 0.98666-0.40002 1.44s-0.26668 0.92-0.40002 1.4h-4.4c0 0.05334 0.0066602 0.13 0.02 0.23s0.02 0.17666 0.02 0.23v2.1h4.04v2.86h-4.04v2.74l-0.04 0.46h5.28v2.84h-8.5v-14.3zm10.62 0.12c0.64-0.08 1.2266-0.14334 1.76-0.19s1.1-0.07 1.7-0.07c0.73334 0 1.4633 0.07 2.19 0.21s1.3767 0.38334 1.95 0.73 1.0367 0.81332 1.39 1.4 0.53 1.3333 0.53 2.24c0 0.52-0.07 0.98666-0.21 1.4s-0.31334 0.77668-0.52 1.09-0.43666 0.58668-0.69 0.82002-0.5 0.43-0.74 0.59l-0.1 0.06 0.27 0.44 0.66 1.1 0.85 1.42 0.85 1.41 0.64 1.09 0.25 0.42h-3.66l-3.78-6.58v6.6h-3.34v-14.18zm3.34 7.46 0.7-0.32c0.17334-0.08 0.38-0.18 0.62-0.3s0.47334-0.27666 0.7-0.47 0.42-0.42334 0.58-0.69 0.24-0.59332 0.24-0.97998c0-0.41334-0.06-0.75668-0.18-1.03s-0.28666-0.49334-0.5-0.66-0.46334-0.28666-0.75-0.36-0.59666-0.11-0.93-0.11h-0.23l-0.25 0.02v4.9zm9.44-5.08h-1.9l1.3-2.5h3.28l4.74 7.84 0.12 0.34v-8.18h3.12v14.3h-2.66l-4.8-7.9-0.1-0.3v8.2h-3.1v-11.8zm13.68-2.5h8.42c-0.13334 0.50666-0.26668 0.98666-0.40002 1.44s-0.26668 0.92-0.40002 1.4h-4.4c0 0.05334 0.0066602 0.13 0.02 0.23s0.02 0.17666 0.02 0.23v2.1h4.04v2.86h-4.04v2.74l-0.04 0.46h5.28v2.84h-8.5v-14.3zm13.38 2.5h-1.42l1.3-2.48h4.4l4.48 14.28h-3.44l-0.8-2.86-0.78 0.06h-2.78l-0.68-0.06-0.82 2.86h-3.22zm3.74 6.22-1.32-4.76-1.4 4.76h2.72zm9.28-0.8c-0.42666-0.17334-0.82332-0.36666-1.19-0.58s-0.68332-0.47-0.94998-0.77-0.47332-0.65334-0.61998-1.06-0.22-0.89-0.22-1.45c0-0.69334 0.12-1.3033 0.36-1.83s0.57666-0.97 1.01-1.33 0.95668-0.63334 1.57-0.82 1.2933-0.28 2.04-0.28c0.61334 0 1.24 0.06334 1.88 0.19s1.4067 0.34332 2.3 0.64998l-1.36 2.44c-0.86666-0.41334-1.78-0.62-2.74-0.62-0.18666 0-0.38 0.02-0.58 0.06s-0.38 0.11-0.54 0.21-0.29334 0.23666-0.4 0.41-0.16 0.4-0.16 0.68c0 0.22666 0.04334 0.41332 0.13 0.55998s0.19666 0.27332 0.33 0.37998 0.28668 0.19666 0.46002 0.27 0.34668 0.14334 0.52002 0.21l1.18 0.46c0.50666 0.2 0.97 0.41 1.39 0.63s0.77666 0.48666 1.07 0.8 0.52 0.69668 0.68 1.15 0.24 1.02 0.24 1.7-0.12334 1.3-0.37 1.86-0.60666 1.0367-1.08 1.43-1.0567 0.7-1.75 0.92-1.4867 0.33-2.38 0.33c-0.41334 0-0.79334-0.01334-1.14-0.04s-0.68332-0.07332-1.01-0.13998-0.65332-0.14666-0.97998-0.24-0.67666-0.21334-1.05-0.36l0.68-2.8c0.54666 0.14666 1.0833 0.27666 1.61 0.39s1.0633 0.17 1.61 0.17c0.73334 0 1.2933-0.09666 1.68-0.29s0.61332-0.56334 0.67998-1.11c0.02666-0.28-0.0066796-0.51334-0.10002-0.7s-0.22668-0.34332-0.40002-0.46998-0.36668-0.23-0.58002-0.31l-0.64-0.24zm11.6 1.22-0.19-0.38-0.51-1.03-0.72-1.47-0.82-1.68c-0.65334-1.3333-1.4-2.86-2.24-4.58h3.6l2.58 5.88c0.48-1.0933 0.90666-2.0734 1.28-2.94 0.16-0.36 0.31666-0.71666 0.47-1.07s0.29-0.67 0.41-0.95 0.21666-0.50334 0.29-0.67l0.11-0.25h3.5l-4.48 9.16v5.16h-3.28v-5.18z"/>
</g>
</svg>
