<?xml version="1.0" encoding="iso-8859-1"?>
<!-- Generator: Adobe Illustrator 19.0.0, SVG Export Plug-In . SVG Version: 6.00 Build 0)  -->
<svg version="1.1" id="Capa_1" xmlns="http://www.w3.org/2000/svg" xmlns:xlink="http://www.w3.org/1999/xlink" x="0px" y="0px"
	 viewBox="0 0 512 512" style="enable-background:new 0 0 512 512;" xml:space="preserve">
<g>
	<g>
		<path d="M238.229,235.104c-0.885-2.066-2.155-3.821-3.808-5.269c-1.653-1.446-3.645-2.701-5.977-3.763
			c-2.332-1.063-4.944-2.037-7.836-2.922c-1.831-0.589-3.469-1.092-4.914-1.505c-1.447-0.412-2.672-0.841-3.675-1.284
			c-1.005-0.443-1.771-0.93-2.303-1.461c-0.531-0.531-0.797-1.209-0.797-2.036c0-1.121,0.457-1.918,1.373-2.391
			c0.914-0.472,2.139-0.708,3.674-0.708c1.889,0,3.821,0.31,5.8,0.93c1.977,0.62,3.764,1.284,5.357,1.992
			c1.889,0.827,3.719,1.771,5.49,2.833l7.438-14.256c-1.417-0.708-3.011-1.461-4.781-2.258c-1.771-0.797-3.675-1.535-5.712-2.214
			c-2.036-0.678-4.147-1.24-6.331-1.682c-2.184-0.443-4.427-0.664-6.729-0.664c-3.129,0-6.096,0.458-8.898,1.372
			c-2.805,0.916-5.299,2.258-7.482,4.029c-2.185,1.771-3.911,3.985-5.18,6.641c-1.27,2.656-1.903,5.727-1.903,9.209
			c0,2.302,0.31,4.339,0.93,6.11c0.619,1.771,1.578,3.351,2.878,4.737c1.297,1.388,2.95,2.627,4.958,3.719
			c2.006,1.093,4.397,2.111,7.172,3.055c1.889,0.65,3.675,1.211,5.357,1.683c1.683,0.473,3.173,0.945,4.472,1.417
			c1.298,0.473,2.316,1.018,3.055,1.638c0.737,0.62,1.106,1.373,1.106,2.258c0.001,0.828-0.368,1.492-1.105,1.993
			c-0.738,0.502-2.052,0.753-3.941,0.753c-2.479,0-4.914-0.354-7.305-1.063s-4.531-1.505-6.42-2.391
			c-2.244-1.003-4.398-2.154-6.464-3.454l-7.438,15.142c1.889,1.122,3.94,2.125,6.154,3.01c2.213,0.886,4.516,1.653,6.906,2.302
			c2.391,0.65,4.795,1.151,7.217,1.505c2.419,0.354,4.781,0.531,7.083,0.531c2.892,0,5.77-0.34,8.634-1.018
			c2.862-0.678,5.43-1.785,7.703-3.321c2.272-1.534,4.103-3.586,5.49-6.154c1.386-2.568,2.08-5.74,2.08-9.519
			C239.557,239.679,239.115,237.171,238.229,235.104z"/>
	</g>
</g>
<g>
	<g>
		<path d="M277.633,198.98h-15.761l-21.871,62.867h17.621l3.719-12.308h16.735l3.808,12.308h17.531L277.633,198.98z
			 M263.908,238.028l5.845-19.48l5.578,19.48H263.908z"/>
	</g>
</g>
<g>
	<g>
		<polygon points="321.906,246.794 321.906,198.98 304.64,198.98 304.64,261.847 350.417,261.847 350.417,246.794 		"/>
	</g>
</g>
<g>
	<g>
		<polygon points="373.705,246.794 373.705,236.877 396.549,236.877 396.549,222.887 373.705,222.887 373.705,214.032 
			400.445,214.032 400.445,198.98 356.438,198.98 356.438,261.847 401.243,261.847 401.243,246.794 		"/>
	</g>
</g>
<g>
	<g>
		<path d="M512,77.448v-30H79.289V0h-30v47.447H0v30h49.289V512h30V77.448h88.851v43.841h-39.732v222.735h339.483V121.288h-38.996
			v-43.84H512z M198.141,77.448h200.754v43.84H198.141V77.448z M437.892,151.288v162.736h-0.001H158.409V151.288H437.892z"/>
	</g>
</g>
<g>
</g>
<g>
</g>
<g>
</g>
<g>
</g>
<g>
</g>
<g>
</g>
<g>
</g>
<g>
</g>
<g>
</g>
<g>
</g>
<g>
</g>
<g>
</g>
<g>
</g>
<g>
</g>
<g>
</g>
</svg>
