<?xml version="1.0" encoding="iso-8859-1"?>
<!-- Generator: Adobe Illustrator 19.0.0, SVG Export Plug-In . SVG Version: 6.00 Build 0)  -->
<svg version="1.1" id="Layer_1" xmlns="http://www.w3.org/2000/svg" xmlns:xlink="http://www.w3.org/1999/xlink" x="0px" y="0px"
	 viewBox="0 0 512 512" style="enable-background:new 0 0 512 512;" xml:space="preserve">
<g>
	<g>
		<path d="M450.582,277.692l-3.862-11.682l-103.829-15.087l61.491-205.798c2.708-9.072,1.637-19.023-2.943-27.301
			c-4.537-8.198-11.961-14.077-20.897-16.549C377.486,0.429,374.325,0,371.146,0H143.592c-3.179,0-6.34,0.429-9.395,1.274
			c-8.973,2.485-16.407,8.391-20.934,16.628c-4.569,8.316-5.601,18.297-2.833,27.381l62.641,205.465l-92.956,13.507
			c-7.495,1.085-13.605,6.234-15.943,13.438l-3.734,11.716l88.517,86.285l-18.833,109.804c-1.282,7.448,1.714,14.841,7.821,19.294
			L147.94,512l109.438-57.535l98.674,51.876c6.697,3.497,14.654,2.905,20.761-1.548l9.88-7.287L365.8,375.694l79.772-77.761
			C451.001,292.651,452.92,284.895,450.582,277.692z M149.602,39.234h215.592l-54.286,181.69l-35.833-72.606l-0.021-0.041
			c-3.354-6.761-10.129-10.961-17.677-10.961l-12.3,0.065l-40.519,82.101L149.602,39.234z M331.082,354.744l-7.449,7.182
			l15.655,91.276l-72.726-38.234l-9.238-4.904l-9.203,4.942l-72.651,38.195l13.904-81.073l1.673-10.348l-7.443-7.105l-58.759-57.276
			l81.4-11.828l10.231-1.585l40.902-82.877l36.363,73.681l4.899,9.348l91.272,13.262L331.082,354.744z"/>
	</g>
</g>
<g>
</g>
<g>
</g>
<g>
</g>
<g>
</g>
<g>
</g>
<g>
</g>
<g>
</g>
<g>
</g>
<g>
</g>
<g>
</g>
<g>
</g>
<g>
</g>
<g>
</g>
<g>
</g>
<g>
</g>
</svg>
