<?xml version="1.0"?>
<svg xmlns="http://www.w3.org/2000/svg" id="Solid" viewBox="0 0 512 512" width="512" height="512"><path d="M296,368a64,64,0,1,0,64-64A64.072,64.072,0,0,0,296,368Zm70.656-44.438,14.478,21.716,21.4,7.132a8,8,0,0,1,3.127,13.247L392,379.313V400a8,8,0,0,1-12.438,6.656L360,393.615l-19.562,13.041A8,8,0,0,1,328,400V379.313l-13.657-13.656a8,8,0,0,1,3.127-13.247l21.4-7.132,14.478-21.716a8,8,0,0,1,13.312,0ZM360,342.422l9.344,14.016a8,8,0,0,0,4.126,3.152l11.72,3.906-6.847,6.847A8,8,0,0,0,376,376v9.052l-11.562-7.708a8,8,0,0,0-8.876,0L344,385.052V376a8,8,0,0,0-2.343-5.657L334.81,363.5l11.72-3.906a8,8,0,0,0,4.126-3.152ZM339.915,276.88a8.005,8.005,0,0,1-8.1,2.169l-28-8.359-6.741,28.444a8,8,0,0,1-5.939,5.939l-28.444,6.74,8.359,28a8,8,0,0,1-2.169,8.1L247.643,368l21.237,20.085a8,8,0,0,1,2.169,8.1l-8.359,28,28.444,6.741a8,8,0,0,1,5.939,5.939l6.74,28.444,28-8.359a8,8,0,0,1,8.1,2.169L360,480.357l20.085-21.237a8.007,8.007,0,0,1,8.1-2.169l28,8.359,6.741-28.444a8,8,0,0,1,5.939-5.939l28.444-6.74-8.359-28a8,8,0,0,1,2.169-8.1L472.357,368,451.12,347.915a8,8,0,0,1-2.169-8.1l8.359-28-28.444-6.741a8,8,0,0,1-5.939-5.939l-6.74-28.444-28,8.359a8,8,0,0,1-8.1-2.169L360,255.643ZM440,368a80,80,0,1,1-80-80A80.091,80.091,0,0,1,440,368ZM254.309,339.673l-9.373-31.4a8,8,0,0,1,5.821-10.073l31.886-7.555,7.556-31.887a8,8,0,0,1,10.072-5.821l31.4,9.374L354.188,238.5a8,8,0,0,1,11.624,0L376,249.275V96H264V216a8,8,0,0,1-12.613,6.536L208,191.909l-43.387,30.627A8,8,0,0,1,152,216V96H40V352H241.275ZM64,336a8,8,0,1,1,8-8A8,8,0,0,1,64,336Zm8-32a8,8,0,0,1-16,0V288a8,8,0,0,1,16,0Zm24,32a8,8,0,1,1,8-8A8,8,0,0,1,96,336Zm8-32a8,8,0,0,1-16,0V288a8,8,0,0,1,16,0Zm24,32a8,8,0,1,1,8-8A8,8,0,0,1,128,336Zm8-32a8,8,0,0,1-16,0V288a8,8,0,0,1,16,0Zm24,32a8,8,0,1,1,8-8A8,8,0,0,1,160,336Zm8-32a8,8,0,0,1-16,0V288a8,8,0,0,1,16,0ZM152,80H40V32H152Zm224,0H264V32H376ZM203.387,175.581,168,200.561V32h80V200.561l-35.387-24.98A8,8,0,0,0,203.387,175.581Z"/></svg>
