<?xml version="1.0" encoding="iso-8859-1"?>
<!-- Generator: Adobe Illustrator 16.0.0, SVG Export Plug-In . SVG Version: 6.00 Build 0)  -->
<!DOCTYPE svg PUBLIC "-//W3C//DTD SVG 1.1//EN" "http://www.w3.org/Graphics/SVG/1.1/DTD/svg11.dtd">
<svg version="1.1" id="Capa_1" xmlns="http://www.w3.org/2000/svg" xmlns:xlink="http://www.w3.org/1999/xlink" x="0px" y="0px"
	 width="564.153px" height="564.152px" viewBox="0 0 564.153 564.152" style="enable-background:new 0 0 564.153 564.152;"
	 xml:space="preserve">
<g>
	<g>
		<path d="M500.345,240.148h-3.519c-0.956,0-1.727,0.774-1.727,1.727c0,0,0,60.994,0,126.507c3.668-4.849,7.22-9.754,10.648-14.707
			c-2.276-2.841-3.648-6.44-3.653-10.366c-0.005-0.005-0.023-101.438-0.023-101.438
			C502.072,240.918,501.297,240.148,500.345,240.148z"/>
		<path d="M450.487,357.289h-3.457c-1.205,0-1.77,0.512-1.77,1.73c0,0,0,30.203,0,64.954c2.357-2.229,4.687-4.48,6.995-6.761
			c0-31.814,0-58.193,0-58.193C452.255,357.801,451.692,357.289,450.487,357.289z"/>
		<path d="M115.991,357.289h-3.452c-1.205,0-1.769,0.512-1.769,1.73c0,0,0,25.762,0,57.069c2.31,2.295,4.638,4.566,6.995,6.809
			c0-34.296,0-63.878,0-63.878C117.76,357.801,117.196,357.289,115.991,357.289z"/>
		<path d="M519.366,83.812C416.3-10.666,299.199,103.214,284.147,118.705c-0.898,0.923-1.807,1.688-2.07,1.697
			c-0.263-0.015-1.176-0.774-2.07-1.697C264.956,103.214,147.853-10.666,44.789,83.812C-13.385,139.202-10.268,222.166,27.7,301.181
			c0-32.65,0-72.497,0-73.296c0-22.735,17.485-40.22,39.345-40.22c0.554,0,50.714,0,50.714,0c13.78,0,43.161,0,43.715,0
			c21.86,0,39.345,17.484,39.345,40.22c0,1.357,0,115.361,0,115.414c0,9.176-7.439,16.61-16.615,16.61
			c-9.17,0-16.605-7.43-16.61-16.601c-0.004-0.005-0.024-101.438-0.024-101.438c0-0.956-0.774-1.727-1.726-1.727h-3.519
			c-0.957,0-1.726,0.774-1.726,1.727c0,0,0,132.813,0,216.982c28.438,20.913,59.02,37.9,90.327,49.266
			c0.005-49.758,0.014-160.071,0.014-160.071c0-0.617-0.564-1.119-1.181-1.119h-4.647c-0.617,0-1.104,0.502-1.104,1.119
			l0.014,65.374c-0.004,5.934-4.853,10.485-10.786,10.485c-5.938,0-10.834-4.557-10.834-10.49c0-0.033,0-73.812,0-74.692
			c0-14.712,13.765-26.388,27.913-26.388c0.358,0,63.093,0,63.457,0c14.147,0,27.975,11.671,27.975,26.388c0,0.88,0,74.659,0,74.692
			c0,5.938-4.839,10.49-10.777,10.49c-5.933,0-10.844-4.552-10.849-10.485c-0.004,0,0.02-65.374,0.02-65.374
			c0-0.617-0.482-1.119-1.1-1.119h-4.719c-0.617,0-1.119,0.502-1.119,1.119c0,0,0,110.327,0,160.081
			c30.896-11.212,61.09-27.903,89.218-48.438c0-84.122,0-217.819,0-217.819c0-0.956-0.774-1.727-1.726-1.727h-3.52
			c-0.956,0-1.726,0.775-1.726,1.727c0,0-0.015,101.434-0.024,101.438c-0.004,9.171-7.439,16.601-16.609,16.601
			c-9.176,0-16.61-7.439-16.61-16.61c0-0.053,0-114.057,0-115.414c0-22.734,17.485-40.22,39.345-40.22c0.555,0,50.71,0,50.71,0
			c13.78,0,43.16,0,43.72,0c21.86,0,39.345,17.485,39.345,40.22c0,0.817,0,42.577,0,75.63
			C574.35,223.802,578.113,139.747,519.366,83.812z M145.491,152.618c-0.636,3.112-1.726,6.058-3.199,8.769
			s-3.328,5.184-5.489,7.345c-0.722,0.722-1.478,1.405-2.267,2.056c-5.508,4.547-12.574,7.277-20.277,7.277
			c-2.2,0-4.351-0.225-6.426-0.646c-3.112-0.636-6.058-1.727-8.769-3.199s-5.183-3.327-7.344-5.488
			c-2.166-2.161-4.016-4.638-5.489-7.345c-1.473-2.711-2.563-5.656-3.199-8.769c-0.425-2.075-0.646-4.222-0.646-6.426
			c0-3.299,0.502-6.483,1.435-9.481c0.311-0.999,0.669-1.975,1.071-2.931c1.21-2.859,2.826-5.508,4.776-7.87
			c0.65-0.789,1.339-1.544,2.056-2.262c2.161-2.161,4.638-4.016,7.344-5.488c2.711-1.473,5.656-2.563,8.769-3.199
			c2.075-0.426,4.222-0.646,6.426-0.646c7.703,0,14.77,2.73,20.277,7.277c0.789,0.65,1.544,1.334,2.267,2.056
			c0.722,0.723,1.405,1.478,2.056,2.262c1.951,2.362,3.562,5.011,4.776,7.87c0.402,0.951,0.76,1.932,1.071,2.931
			c0.932,2.993,1.434,6.178,1.434,9.481C146.142,148.396,145.917,150.543,145.491,152.618z M282.072,308.937
			c-12.331,0-22.328-9.998-22.328-22.329c0-8.567,4.829-16.002,11.91-19.746l6.952-11.704v9.395
			c0.861-0.134,1.736-0.215,2.625-0.248l5.488-9.146v9.615c0.684,0.143,1.354,0.315,2.008,0.521l6.02-10.136v13.071
			c5.834,4.031,9.653,10.758,9.653,18.379C304.4,298.938,294.403,308.937,282.072,308.937z M479.987,152.618
			c-0.636,3.112-1.726,6.058-3.198,8.769s-3.328,5.184-5.489,7.345c-5.771,5.771-13.736,9.338-22.539,9.338
			c-2.199,0-4.351-0.226-6.426-0.646c-3.112-0.637-6.058-1.727-8.769-3.199s-5.183-3.327-7.344-5.488s-4.017-4.639-5.489-7.345
			c-1.473-2.711-2.562-5.656-3.198-8.769c-0.426-2.075-0.646-4.222-0.646-6.426c0-3.299,0.502-6.483,1.434-9.481
			c0.312-0.999,0.67-1.975,1.071-2.931c1.21-2.859,2.826-5.508,4.776-7.87c0.65-0.789,1.334-1.544,2.056-2.262
			c2.161-2.161,4.639-4.016,7.345-5.488c2.711-1.473,5.656-2.563,8.769-3.199c2.075-0.426,4.222-0.646,6.426-0.646
			c8.803,0,16.772,3.567,22.539,9.338c0.722,0.722,1.405,1.478,2.056,2.262c1.951,2.361,3.562,5.011,4.776,7.87
			c0.402,0.951,0.761,1.932,1.071,2.931c0.933,2.993,1.435,6.178,1.435,9.481C480.632,148.396,480.413,150.543,479.987,152.618z"/>
		<path d="M284.329,422.181h-4.575c-0.779,0-1.147,0.329-1.147,1.118c0,0,0,13.771,0,30.882c-0.014,0.067-0.043,0.13-0.043,0.201
			l-0.005,62.229c0.014,0.004,0.029,0.009,0.043,0.009l0,0c1.124,0.282,2.247,0.564,3.375,0.832h0.196
			c1.123-0.263,2.242-0.545,3.366-0.827c-0.005-16.127-0.015-93.325-0.015-93.325C285.524,422.51,285.108,422.181,284.329,422.181z"
			/>
		<path d="M67.92,241.875c0-0.957-0.775-1.727-1.726-1.727h-3.519c-0.957,0-1.726,0.774-1.726,1.727
			c0,0-0.015,101.434-0.024,101.438c0,3.571-1.143,6.871-3.06,9.577c3.247,4.709,6.593,9.381,10.055,13.999
			C67.92,301.941,67.92,241.875,67.92,241.875z"/>
		<path d="M285.582,516.61l-0.005-62.229c0-0.066-0.033-0.124-0.048-0.191c0,0.062,0,0.129,0,0.191
			c0.005,20.373,0.01,46.115,0.01,62.242C285.557,516.619,285.567,516.614,285.582,516.61z"/>
	</g>
</g>
<g>
</g>
<g>
</g>
<g>
</g>
<g>
</g>
<g>
</g>
<g>
</g>
<g>
</g>
<g>
</g>
<g>
</g>
<g>
</g>
<g>
</g>
<g>
</g>
<g>
</g>
<g>
</g>
<g>
</g>
</svg>
