<svg height="512" viewBox="0 0 60 60" width="512" xmlns="http://www.w3.org/2000/svg"><g id="Page-1" fill="none" fill-rule="evenodd"><g id="002---Cheers" fill="rgb(0,0,0)" fill-rule="nonzero"><path id="Shape" d="m1.016 52.432 18.708 6.422c.5696565.1939336 1.2000789.0301375 1.6032855-.416565.4032067-.4467026.5017893-1.0905527.2507145-1.637435-1.1649075-2.4315631-2.8621866-4.5697384-4.966-6.256-.6178248-.5330846-.8466881-1.3898344-.577-2.16l4.1-11.941c3.2031899.3940918 6.4424841-.3583427 9.144-2.124 2.9246132 2.5027429 6.7683127 3.6575227 10.588 3.181l4.1 11.938c.2694664.7696706.0410481 1.6258428-.576 2.159-2.1023571 1.6845306-3.7986073 3.8206506-4.963 6.25-.2637838.5471937-.1715002 1.1994591.2337276 1.652s1.0433867.6160021 1.6162724.414l18.706-6.413c.570349-.1965578.9685194-.7143091 1.0120574-1.3160045.043538-.6016955-.275947-1.1713755-.8120574-1.4479955-2.4125705-1.2035593-5.065157-1.8485059-7.761-1.887-.8152295-.0403672-1.5224479-.5761387-1.782-1.35l-4.1-11.935c4.86143-2.9745256 7.4396359-8.5949593 6.523-14.22 0-.03.01-.058.006-.088-.0121683-.0456912-.0275397-.0904687-.046-.134-.1205241-.6989275-.2943651-1.3876054-.52-2.06-.549-1.61-2.54-5.417-6.273-11.993-.482614-.8267558-1.4809241-1.19897865-2.387-.89l-11.3 3.872-14.39-4.943c-.911389-.3106979-1.9149769.07000236-2.391.907-3.663 6.44-5.715 10.358-6.271 11.979-2.12425377 6.2185017.35598291 13.0780232 5.966 16.5l-4.1 11.938c-.2592863.7732076-.96551583 1.3088311-1.78 1.35-2.69294634.037491-5.34286145.6810858-7.753 1.883-.53937903.273629-.86273517.8433895-.82108513 1.4467699.04165003.6033803.44022495 1.1233075 1.01208513 1.3202301zm46.732-4.289c.5314842 1.5569994 1.9633294 2.6287992 3.607 2.7 1.9919871.0372707 3.9614113.4290561 5.816 1.157l-16.381 5.626c1.0163082-1.7150061 2.3301924-3.2351161 3.88-4.489 1.2523851-1.0659015 1.7231621-2.7906283 1.186-4.345l-4-11.66c.321-.086.643-.177.961-.286s.622-.242.927-.372zm-5.582-13.189c-3.8225769 1.3163148-8.0513852.6128926-11.242-1.87 1.8563489-1.6072954 3.2540412-3.6774397 4.051-6 .2734168-.8816483.4951274-1.7785076.664-2.686l14.561-1.898c.5080449 5.5057464-2.8085004 10.6469284-8.034 12.454zm1.334-26.891c3.562 6.276 5.62 10.192 6.114 11.642.094.274.165.55.238.826l-13.82 1.8c.1773333-.988.3666667-2.114.568-3.378 0-.009.008-.017.01-.027s0-.025 0-.038c.24-1.506.5-3.2.773-5.107.1372269-.9516127-.4203736-1.8666817-1.329-2.181l-1.431-.491zm-27-1.063 18.9 6.494c-.214 1.47-.415 2.816-.607 4.05l-21.741-4.35c.9266667-1.7126667 2.076-3.77733333 3.448-6.194zm-6.12 11.643c.4892223-1.2356935 1.0549858-2.4396942 1.694-3.605l22.4 4.482c-.3196448 2.3326703-.7872544 4.6426618-1.4 6.916-2.1519775 6.2684319-8.9780681 9.6054775-15.2465 7.4535s-9.60547753-8.9780681-7.4535-15.2465zm-1.733 31.137c1.642927-.072006 3.0737809-1.1436581 3.605-2.7l4.007-11.672c.306.13.61.263.929.373s.639.2.959.285l-4 11.663c-.5371543 1.5550723-.0655227 3.2804179 1.188 4.346 1.548731 1.2537575 2.8615951 2.7735239 3.877 4.488l-16.384-5.624c1.85530846-.7293066 3.82584351-1.1217881 5.819-1.159z"/><circle id="Oval" cx="27" cy="2" r="1"/><circle id="Oval" cx="38" cy="1" r="1"/><circle id="Oval" cx="33" cy="4" r="1"/><circle id="Oval" cx="37" cy="5" r="1"/><circle id="Oval" cx="22" cy="3" r="1"/><circle id="Oval" cx="29" cy="6" r="1"/><path id="Shape" d="m22.18 32.617c.0712366.0000033.142282-.0073694.212-.022 4.288-.925 8.042-4.6 9.561-9.361.1678946-.5263274-.1226726-1.0891054-.649-1.257-.5263274-.1678945-1.0891054.1226726-1.257.649-1.3 4.092-4.476 7.237-8.077 8.014-.4984358.1087756-.8350777.5753195-.7811902 1.0826325.0538876.507313.4810259.892727.9911902.8943675z"/><path id="Shape" d="m43.862 31.274c.2163702 0 .4269038-.0701779.6-.2 1.8121991-1.3889872 2.9632081-3.4706609 3.176-5.744.0348878-.5424357-.3698982-1.0134047-.9114164-1.0604342-.5415181-.0470294-1.0214361.3471054-1.0805836.8874342-.1602969 1.7105498-1.0264319 3.2768408-2.39 4.322-.3443443.2582582-.4847973.7078856-.3486833 1.1162278.136114.4083421.5182529.6837722.9486833.6837722z"/></g></g></svg>