<?xml version="1.0" encoding="iso-8859-1"?>
<!-- Generator: Adobe Illustrator 19.0.0, SVG Export Plug-In . SVG Version: 6.00 Build 0)  -->
<svg version="1.1" id="Capa_1" xmlns="http://www.w3.org/2000/svg" xmlns:xlink="http://www.w3.org/1999/xlink" x="0px" y="0px"
	 viewBox="0 0 424.88 424.88" style="enable-background:new 0 0 424.88 424.88;" xml:space="preserve">
<g>
	<g>
		<path d="M374.828,277.584L205.132,107.872l-96.08,96.08c17.792,30.448,55.76,78.576,90.416,113.232
			c23.472,23.472,48.416,44.08,74.144,61.616l-11.488,11.488c-25.68-17.728-50.544-38.352-73.968-61.792
			c-29.568-29.568-68.8-75.6-90.864-112.784L80.46,232.544c19.792,33.936,57.904,80.128,90.72,112.928
			c32.8,32.8,67.68,59.6,101.616,79.408l102.032-102.032C387.34,310.336,387.34,290.08,374.828,277.584z M340.892,311.52
			c-6.256,6.256-16.384,6.256-22.624,0c-6.256-6.256-6.256-16.384,0-22.624c6.256-6.256,16.384-6.256,22.624,0
			C347.148,295.152,347.148,305.28,340.892,311.52z"/>
	</g>
</g>
<g>
	<g>
		<path d="M108.956,11.712c-15.616-15.616-40.944-15.616-56.576,0c-15.616,15.616-15.616,40.944,0,56.576
			c9.232,9.216,21.84,12.848,33.824,11.184l62.352,62.352l45.248-45.248L108.956,11.712z M89.164,48.336
			c-4.688,4.688-12.288,4.688-16.976,0s-4.688-12.288,0-16.976c4.688-4.688,12.288-4.688,16.976,0
			C93.852,36.048,93.852,43.648,89.164,48.336z"/>
	</g>
</g>
<g>
</g>
<g>
</g>
<g>
</g>
<g>
</g>
<g>
</g>
<g>
</g>
<g>
</g>
<g>
</g>
<g>
</g>
<g>
</g>
<g>
</g>
<g>
</g>
<g>
</g>
<g>
</g>
<g>
</g>
</svg>
