<?xml version="1.0" encoding="iso-8859-1"?>
<!-- Generator: Adobe Illustrator 19.0.0, SVG Export Plug-In . SVG Version: 6.00 Build 0)  -->
<svg version="1.1" id="Capa_1" xmlns="http://www.w3.org/2000/svg" xmlns:xlink="http://www.w3.org/1999/xlink" x="0px" y="0px"
	 viewBox="0 0 512 512" style="enable-background:new 0 0 512 512;" xml:space="preserve">
<g>
	<g>
		<g>
			<path d="M486.4,51.2c4.71,0,8.533-3.823,8.533-8.533V8.533c0-4.71-3.823-8.533-8.533-8.533H25.6c-4.71,0-8.533,3.823-8.533,8.533
				v34.133c0,4.71,3.823,8.533,8.533,8.533h8.533v341.333H25.6c-4.71,0-8.533,3.823-8.533,8.533V435.2
				c0,4.71,3.823,8.533,8.533,8.533h25.6v59.733c0,4.71,3.823,8.533,8.533,8.533h25.6c3.917,0,7.33-2.662,8.277-6.46l15.454-61.807
				h293.871l15.454,61.807c0.947,3.797,4.361,6.46,8.277,6.46h25.6c4.71,0,8.533-3.823,8.533-8.533v-59.733h25.6
				c4.71,0,8.533-3.823,8.533-8.533v-34.133c0-4.71-3.823-8.533-8.533-8.533h-8.533V51.2H486.4z M78.669,494.933H68.267v-51.2
				h23.202L78.669,494.933z M443.733,494.933h-10.402l-12.8-51.2h23.202V494.933z M477.867,426.667h-25.6H409.6H102.4H59.733h-25.6
				V409.6h8.533h426.667h8.533V426.667z M68.267,366.933V76.8c0-4.71,3.823-8.533,8.533-8.533h162.133
				c4.71,0,8.533,3.823,8.533,8.533v290.133c0,4.71-3.823,8.533-8.533,8.533H76.8C72.09,375.467,68.267,371.644,68.267,366.933z
				 M273.067,170.667H435.2c4.71,0,8.533,3.823,8.533,8.533v85.333c0,4.71-3.823,8.533-8.533,8.533H273.067
				c-4.71,0-8.533-3.823-8.533-8.533V179.2C264.533,174.49,268.356,170.667,273.067,170.667z M264.533,145.067V76.8
				c0-4.71,3.823-8.533,8.533-8.533H435.2c4.71,0,8.533,3.823,8.533,8.533v68.267c0,4.71-3.823,8.533-8.533,8.533H273.067
				C268.356,153.6,264.533,149.777,264.533,145.067z M273.067,290.133H435.2c4.71,0,8.533,3.823,8.533,8.533v68.267
				c0,4.71-3.823,8.533-8.533,8.533H273.067c-4.71,0-8.533-3.823-8.533-8.533v-68.267
				C264.533,293.956,268.356,290.133,273.067,290.133z M469.333,34.133H42.667h-8.533V17.067h443.733v17.067H469.333z"/>
			<path d="M426.667,187.733H281.6V256h145.067V187.733z M384,230.4h-59.733c-4.71,0-8.533-3.823-8.533-8.533
				c0-4.71,3.823-8.533,8.533-8.533H384c4.71,0,8.533,3.823,8.533,8.533C392.533,226.577,388.71,230.4,384,230.4z"/>
			<path d="M426.667,307.2H281.6v51.2h145.067V307.2z M384,341.333h-59.733c-4.71,0-8.533-3.823-8.533-8.533
				c0-4.71,3.823-8.533,8.533-8.533H384c4.71,0,8.533,3.823,8.533,8.533C392.533,337.51,388.71,341.333,384,341.333z"/>
			<path d="M230.4,85.333H85.333V358.4H230.4V85.333z M204.8,247.467c0,4.71-3.823,8.533-8.533,8.533s-8.533-3.823-8.533-8.533
				V230.4h-17.067c-4.71,0-8.533-3.823-8.533-8.533c0-4.71,3.823-8.533,8.533-8.533h25.6c4.71,0,8.533,3.823,8.533,8.533V247.467z"
				/>
			<path d="M426.667,85.333H281.6v51.2h145.067V85.333z M384,119.467h-59.733c-4.71,0-8.533-3.823-8.533-8.533
				s3.823-8.533,8.533-8.533H384c4.71,0,8.533,3.823,8.533,8.533S388.71,119.467,384,119.467z"/>
		</g>
	</g>
</g>
<g>
</g>
<g>
</g>
<g>
</g>
<g>
</g>
<g>
</g>
<g>
</g>
<g>
</g>
<g>
</g>
<g>
</g>
<g>
</g>
<g>
</g>
<g>
</g>
<g>
</g>
<g>
</g>
<g>
</g>
</svg>
