<svg id="Layer_1" enable-background="new 0 0 512 512" height="512" viewBox="0 0 512 512" width="512" xmlns="http://www.w3.org/2000/svg"><g><path d="m384.533 0h-257.066c-70.285 0-127.467 57.182-127.467 127.467v257.066c0 70.285 57.182 127.467 127.467 127.467h257.066c70.285 0 127.467-57.182 127.467-127.467v-257.066c0-70.285-57.182-127.467-127.467-127.467zm-79.266 95.333c0-8.284 6.716-15 15-15s15 6.716 15 15v32.133c0 8.284-6.716 15-15 15s-15-6.716-15-15zm-64.267 0c0-8.284 6.716-15 15-15s15 6.716 15 15v32.133c0 8.284-6.716 15-15 15s-15-6.716-15-15zm-64.267 0c0-8.284 6.716-15 15-15s15 6.716 15 15v32.133c0 8.284-6.716 15-15 15s-15-6.716-15-15zm239.934 242.067c8.284 0 15 6.716 15 15 0 43.708-35.559 79.267-79.267 79.267h-192.8c-43.708 0-79.267-35.559-79.267-79.267 0-8.284 6.716-15 15-15h50.438c-10.776-13.539-17.238-30.657-17.238-49.267v-96.4c0-8.284 6.716-15 15-15h241c34.849 0 63.2 28.344 63.2 63.184 0 35.457-28.865 63.216-63.2 63.216h-2.509c-2.457 12.774-7.99 24.459-15.796 34.267z"/><path d="m417.733 239.933c0-18.313-14.894-33.2-33.2-33.2h-1.066v66.4h1.066c18.035 0 33.2-14.6 33.2-33.2z"/><path d="m207.8 337.4h96.4c27.166 0 49.267-22.101 49.267-49.267v-81.4h-194.934v81.4c0 27.166 22.101 49.267 49.267 49.267z"/><path d="m159.6 401.667h192.8c21.938 0 40.572-14.413 46.933-34.267h-286.666c6.36 19.854 24.995 34.267 46.933 34.267z"/></g></svg>