<svg id="Layer_1" enable-background="new 0 0 512 512" height="512" viewBox="0 0 512 512" width="512" xmlns="http://www.w3.org/2000/svg"><g><path d="m437.02 74.98c-48.352-48.352-112.64-74.98-181.02-74.98s-132.668 26.628-181.02 74.98-74.98 112.64-74.98 181.02 26.629 132.667 74.98 181.02 112.64 74.98 181.02 74.98 132.668-26.628 181.02-74.98 74.98-112.64 74.98-181.02-26.629-132.667-74.98-181.02zm-117.472 317.02h-31.548c-53.943 0-100.651-31.569-122.621-77.203-.827-1.718-2.579-2.797-4.485-2.797h-16.442c-8.615 0-16.028-6.621-16.434-15.226-.433-9.188 6.888-16.774 15.982-16.774h4.278c3.047 0 5.354-2.697 4.947-5.717-.808-5.981-1.225-12.084-1.225-18.283s.417-12.302 1.225-18.283c.408-3.019-1.9-5.717-4.947-5.717h-3.826c-8.615 0-16.028-6.621-16.434-15.226-.433-9.188 6.888-16.774 15.982-16.774h16.893c1.907 0 3.658-1.079 4.485-2.797 21.971-45.634 68.679-77.203 122.622-77.203h23.548c8.615 0 16.028 6.621 16.434 15.226.433 9.188-6.888 16.774-15.982 16.774h-24c-33.206 0-62.827 15.643-81.881 39.946-2.56 3.266-.185 8.054 3.964 8.054h61.464c8.615 0 16.028 6.621 16.434 15.226.434 9.188-6.887 16.774-15.981 16.774h-81.158c-2.389 0-4.455 1.686-4.914 4.031-1.263 6.464-1.928 13.14-1.928 19.969s.665 13.505 1.929 19.969c.458 2.344 2.525 4.031 4.914 4.031h80.706c8.615 0 16.028 6.621 16.434 15.226.432 9.188-6.889 16.774-15.983 16.774h-61.916c-4.15 0-6.525 4.788-3.964 8.054 19.053 24.303 48.674 39.946 81.88 39.946h32c9.094 0 16.415 7.586 15.982 16.774-.406 8.605-7.819 15.226-16.434 15.226z"/></g></svg>