<?xml version="1.0" encoding="iso-8859-1"?>
<!-- Generator: Adobe Illustrator 19.0.0, SVG Export Plug-In . SVG Version: 6.00 Build 0)  -->
<svg version="1.1" id="Capa_1" xmlns="http://www.w3.org/2000/svg" xmlns:xlink="http://www.w3.org/1999/xlink" x="0px" y="0px"
	 viewBox="0 0 512 512" style="enable-background:new 0 0 512 512;" xml:space="preserve">
<g>
	<g>
		<g>
			<path d="M458.667,0C452.771,0,448,4.771,448,10.667c0,11.12-10.865,25.867-18.053,34.085c-4.474-1.221-9.091-2.085-13.947-2.085
				c-2.833,0-5.542,1.125-7.542,3.125L367.31,86.94c-4.947-1.036-10.06-1.607-15.31-1.607c-2.833,0-5.542,1.125-7.542,3.125
				L3.125,429.792c-2.042,2.042-2.716,4.767-2.716,7.542H0C0,478.5,33.5,512,74.667,512c2.771,0,5.5-1.083,7.542-3.125
				l341.333-341.333c2-2,3.125-4.708,3.125-7.542c0-5.25-0.57-10.363-1.607-15.31l41.148-41.148c2-2,3.125-4.708,3.125-7.542
				c0-4.862-0.865-9.483-2.09-13.962c8.184-7.182,22.9-18.038,34.09-18.038C507.229,64,512,59.229,512,53.333
				C512,23.927,488.073,0,458.667,0z M22.879,449.546c19.577,4.624,34.952,19.999,39.576,39.576
				C42.878,484.497,27.503,469.122,22.879,449.546z M230.964,329.953c-7.285-23.353-25.564-41.632-48.917-48.917l45.964-45.964
				c26.158,1.988,46.928,22.759,48.917,48.917L230.964,329.953z"/>
			<circle cx="234.667" cy="277.333" r="10.667"/>
		</g>
	</g>
</g>
<g>
</g>
<g>
</g>
<g>
</g>
<g>
</g>
<g>
</g>
<g>
</g>
<g>
</g>
<g>
</g>
<g>
</g>
<g>
</g>
<g>
</g>
<g>
</g>
<g>
</g>
<g>
</g>
<g>
</g>
</svg>
