<?xml version="1.0" encoding="iso-8859-1"?>
<!-- Generator: Adobe Illustrator 19.0.0, SVG Export Plug-In . SVG Version: 6.00 Build 0)  -->
<svg version="1.1" id="Capa_1" xmlns="http://www.w3.org/2000/svg" xmlns:xlink="http://www.w3.org/1999/xlink" x="0px" y="0px"
	 viewBox="0 0 464.079 464.079" style="enable-background:new 0 0 464.079 464.079;" xml:space="preserve">
<g>
	<g>
		<path d="M463.063,184.071c-2.905-11.297-11.726-20.119-23.024-23.024v-18.016c17.116-4.401,27.424-21.844,23.024-38.96
			c-2.905-11.297-11.726-20.119-23.024-23.024V63.031c14.117-3.671,23.978-16.406,24-30.992
			c0.018-17.673-14.295-32.014-31.968-32.032c-14.616-0.014-27.384,9.876-31.024,24.032h-18.016
			c-4.401-17.116-21.844-27.424-38.96-23.024c-11.297,2.905-20.119,11.726-23.024,23.024h-18.016
			c-4.401-17.116-21.844-27.424-38.96-23.024c-11.297,2.905-20.119,11.726-23.024,23.024h-18.016
			c-4.401-17.116-21.844-27.424-38.96-23.024c-11.297,2.905-20.119,11.726-23.024,23.024h-18.016
			c-4.401-17.116-21.844-27.424-38.96-23.024C92.774,3.92,83.952,12.742,81.047,24.039H63.031
			C58.607,6.929,41.15-3.355,24.039,1.069C6.929,5.494-3.355,22.951,1.069,40.061c2.912,11.263,11.707,20.058,22.97,22.97v18.016
			c-17.116,4.401-27.424,21.844-23.024,38.96c2.905,11.297,11.726,20.119,23.024,23.024v18.016
			c-17.116,4.401-27.424,21.844-23.024,38.96c2.905,11.297,11.726,20.119,23.024,23.024v18.016
			c-17.116,4.401-27.424,21.844-23.024,38.96c2.905,11.297,11.726,20.119,23.024,23.024v18.016
			c-17.116,4.401-27.424,21.844-23.024,38.96c2.905,11.297,11.726,20.119,23.024,23.024v18.016
			c-17.11,4.424-27.394,21.882-22.97,38.992c4.424,17.11,21.882,27.394,38.992,22.97c11.263-2.912,20.058-11.707,22.97-22.97h18.016
			c4.401,17.116,21.844,27.424,38.96,23.024c11.297-2.905,20.119-11.726,23.024-23.024h18.016
			c4.401,17.116,21.844,27.424,38.96,23.024c11.297-2.905,20.119-11.726,23.024-23.024h18.016
			c4.401,17.116,21.844,27.424,38.96,23.024c11.297-2.905,20.119-11.726,23.024-23.024h18.016
			c4.401,17.116,21.844,27.424,38.96,23.024c11.297-2.905,20.119-11.726,23.024-23.024h18.016
			c4.424,17.11,21.882,27.394,38.992,22.97c17.11-4.424,27.394-21.882,22.97-38.992c-2.912-11.263-11.707-20.058-22.97-22.97
			v-18.016c17.116-4.401,27.424-21.844,23.024-38.96c-2.905-11.297-11.726-20.119-23.024-23.024v-18.016
			c17.116-4.401,27.424-21.844,23.024-38.96c-2.905-11.297-11.726-20.119-23.024-23.024v-18.016
			C457.156,218.631,467.464,201.187,463.063,184.071z M432.039,256.039c8.837,0,16,7.163,16,16s-7.163,16-16,16
			c-4.418,0-8,3.582-8,8v32c0,4.418,3.582,8,8,8c8.837,0,16,7.163,16,16s-7.163,16-16,16c-4.418,0-8,3.582-8,8v32
			c0,4.418,3.582,8,8,8c8.837,0,16,7.163,16,16s-7.163,16-16,16s-16-7.163-16-16c0-4.418-3.582-8-8-8h-32c-4.418,0-8,3.582-8,8
			c0,8.837-7.163,16-16,16s-16-7.163-16-16c0-4.418-3.582-8-8-8h-32c-4.418,0-8,3.582-8,8c0,8.837-7.163,16-16,16s-16-7.163-16-16
			c0-4.418-3.582-8-8-8h-32c-4.418,0-8,3.582-8,8c0,8.837-7.163,16-16,16s-16-7.163-16-16c0-4.418-3.582-8-8-8h-32
			c-4.418,0-8,3.582-8,8c0,8.837-7.163,16-16,16s-16-7.163-16-16c0-4.418-3.582-8-8-8h-32c-4.418,0-8,3.582-8,8
			c0,8.837-7.163,16-16,16s-16-7.163-16-16s7.163-16,16-16c4.418,0,8-3.582,8-8v-32c0-4.418-3.582-8-8-8c-8.837,0-16-7.163-16-16
			s7.163-16,16-16c4.418,0,8-3.582,8-8v-32c0-4.418-3.582-8-8-8c-8.837,0-16-7.163-16-16s7.163-16,16-16c4.418,0,8-3.582,8-8v-32
			c0-4.418-3.582-8-8-8c-8.837,0-16-7.163-16-16s7.163-16,16-16c4.418,0,8-3.582,8-8v-32c0-4.418-3.582-8-8-8
			c-8.837,0-16-7.163-16-16s7.163-16,16-16c4.418,0,8-3.582,8-8v-32c0-4.418-3.582-8-8-8c-8.837,0-16-7.163-16-16s7.163-16,16-16
			s16,7.163,16,16c0,4.418,3.582,8,8,8h32c4.418,0,8-3.582,8-8c0-8.837,7.163-16,16-16s16,7.163,16,16c0,4.418,3.582,8,8,8h32
			c4.418,0,8-3.582,8-8c0-8.837,7.163-16,16-16s16,7.163,16,16c0,4.418,3.582,8,8,8h32c4.418,0,8-3.582,8-8c0-8.837,7.163-16,16-16
			s16,7.163,16,16c0,4.418,3.582,8,8,8h32c4.418,0,8-3.582,8-8c0-8.837,7.163-16,16-16s16,7.163,16,16c0,4.418,3.582,8,8,8h32
			c4.418,0,8-3.582,8-8c0-8.837,7.163-16,16-16s16,7.163,16,16s-7.163,16-16,16c-4.418,0-8,3.582-8,8v32c0,4.418,3.582,8,8,8
			c8.837,0,16,7.163,16,16s-7.163,16-16,16c-4.418,0-8,3.582-8,8v32c0,4.418,3.582,8,8,8c8.837,0,16,7.163,16,16s-7.163,16-16,16
			c-4.418,0-8,3.582-8,8v32C424.039,252.458,427.621,256.039,432.039,256.039z"/>
	</g>
</g>
<g>
	<g>
		<path d="M384.039,72.039h-304c-4.418,0-8,3.582-8,8v304c0,4.418,3.582,8,8,8h304c4.418,0,8-3.582,8-8v-304
			C392.039,75.621,388.458,72.039,384.039,72.039z M376.039,376.039h-288v-288h288V376.039z"/>
	</g>
</g>
<g>
	<g>
		<path d="M320.039,272.039c3.047,0.017,5.838-1.699,7.2-4.424l8-16c0.853-1.709,1.065-3.667,0.6-5.52l-7.96-31.656l-8-40
			c-0.235-1.161-0.727-2.254-1.44-3.2l-24-32c-0.62-0.826-1.394-1.524-2.28-2.056l-40-24c-0.786-0.477-1.65-0.81-2.552-0.984l-40-8
			c-1.161-0.242-2.363-0.214-3.512,0.08l-32,8c-1.405,0.352-2.688,1.08-3.712,2.104l-8,8c-2.436,2.433-3.041,6.152-1.504,9.232
			l6.52,13.04l-14.608,43.84l-15.408,23.104c-2.453,3.674-1.464,8.642,2.211,11.096c0.279,0.186,0.569,0.355,0.869,0.504v0.04
			l11.576,5.744v9.848c-4.935,17.157,4.536,35.153,21.472,40.8c1.321,0.434,2.732,0.519,4.096,0.248l32.152-6.4l5.24,26.184
			l-54.16,27.304c-0.276,0.144-0.543,0.304-0.8,0.48c-6.175,4.118-7.843,12.463-3.725,18.638c2.158,3.236,5.611,5.378,9.469,5.873
			c17.663,2.476,35.477,3.719,53.312,3.72c21.175,0,42.314-1.753,63.2-5.24l39.072-6.512c4.358-0.728,7.3-4.852,6.572-9.209
			c-0.225-1.346-0.791-2.613-1.643-3.679l-30.704-38.4l-3.656-21.944c1.216,0.821,2.638,1.286,4.104,1.344H320.039z
			 M305.231,330.399l-25.6,4.272c-34.208,5.708-69.052,6.551-103.496,2.504l51.488-25.984c3.234-1.62,4.979-5.208,4.256-8.752l-8-40
			c-0.883-4.329-5.108-7.123-9.437-6.241c-0.001,0-0.002,0-0.003,0.001l-37.704,7.536c-7.99-3.702-11.923-12.815-9.136-21.168
			c0.282-0.814,0.43-1.667,0.44-2.528v-16c0.001-3.032-1.712-5.805-4.424-7.16l-7.896-3.944l10.976-16.48
			c0.391-0.596,0.706-1.238,0.936-1.912l12.848-38.504l29.896,17.944l31.008,46.504c0.293,0.437,0.628,0.844,1,1.216l30.184,30.184
			l7.584,45.48c0.212,1.343,0.763,2.609,1.6,3.68L305.231,330.399z M254.255,210.943l-31.56-47.344
			c-0.657-0.978-1.523-1.798-2.536-2.4l-38.008-22.808l-4.376-8.8l2.352-2.352l28.104-7.024l36.88,7.376l37.464,22.48l21.976,29.288
			l7.728,38.6l7.28,29.128l-4.464,8.952h-15.744L254.255,210.943z"/>
	</g>
</g>
<g>
</g>
<g>
</g>
<g>
</g>
<g>
</g>
<g>
</g>
<g>
</g>
<g>
</g>
<g>
</g>
<g>
</g>
<g>
</g>
<g>
</g>
<g>
</g>
<g>
</g>
<g>
</g>
<g>
</g>
</svg>
