<svg id="Capa_1" enable-background="new 0 0 488.49 488.49" height="512" viewBox="0 0 488.49 488.49" width="512" xmlns="http://www.w3.org/2000/svg"><g><path d="m339.621 257.896.003-.001-31.335-86.582c24.906-43.634-2.044-100.53-50.599-109.802v-61.511c-.001 0-30.002 0-30.005 0l.005 61.509c-.002 0-.003.001-.005.001-47.929 8.991-75.201 65.379-51.176 108.749l-60.094 167.331.07-69.4h-43.5l.2 198.62 21.55 21.68 21.55-21.68.04-39.555 53.41-149.255h145.26l17.97 49.66c8.3-5.4 18.02-8.8 28.46-9.51zm-111.936-137.896h30v30h-30zm-47.19 128 18.641-51.969c24.326 18.256 61.82 18.49 86.378.51l18.621 51.459z"/><path d="m400.355 426.85c-8.08 5.78-17.65 9.6-28.01 10.77l15.01 41.48 19.98 5.9 8.23-16.1z"/><path d="m395.565 378c.091-16.647-13.855-30.104-30-30-16.551.002-30.007 13.493-30 30 1.649 39.794 58.353 39.791 60 0z"/><path d="m72.955 238.19h43.56l.03-33.16h-43.62z"/></g></svg>