<svg id="Capa_1" enable-background="new 0 0 512.545 512.545" height="512" viewBox="0 0 512.545 512.545" width="512" xmlns="http://www.w3.org/2000/svg"><g><path d="m442.863 0h-18.855c-4.142 0-7.5 3.358-7.5 7.5s3.358 7.5 7.5 7.5h18.855c3.854 0 6.99 3.136 6.99 6.99v468.564c0 3.854-3.136 6.991-6.99 6.991h-373.18c-3.854 0-6.99-3.136-6.99-6.991v-468.564c0-3.854 3.136-6.99 6.99-6.99h322.362c4.142 0 7.5-3.358 7.5-7.5s-3.358-7.5-7.5-7.5h-322.362c-12.125 0-21.99 9.865-21.99 21.99v468.564c0 12.125 9.865 21.991 21.99 21.991h373.18c12.125 0 21.99-9.865 21.99-21.991v-468.564c0-12.125-9.865-21.99-21.99-21.99z"/><path d="m116.141 45c-12.929 0-23.448 10.519-23.448 23.448v375.649c0 12.929 10.519 23.448 23.448 23.448h280.264c12.929 0 23.448-10.519 23.448-23.448v-375.649c0-12.929-10.519-23.448-23.448-23.448zm288.712 23.448v375.649c0 4.658-3.79 8.448-8.448 8.448h-280.264c-4.658 0-8.448-3.79-8.448-8.448v-375.649c0-4.658 3.79-8.448 8.448-8.448h280.264c4.658 0 8.448 3.79 8.448 8.448z"/><path d="m382.353 75h-252.16c-4.142 0-7.5 3.358-7.5 7.5v35.213c0 4.142 3.358 7.5 7.5 7.5s7.5-3.358 7.5-7.5v-27.713h237.16v332.545h-21.937v-15.468c0-4.142-3.358-7.5-7.5-7.5s-7.5 3.358-7.5 7.5v15.468h-76.929v-2.59c0-13.276-10.8-24.076-24.076-24.076h-24.249c-13.275 0-24.076 10.8-24.076 24.076v2.59h-12.958v-50.167c0-16.762 6.538-32.484 17.661-44.186l1.519.851c18.746 10.499 40.01 16.085 61.496 16.156h.412c21.345 0 42.495-5.443 61.188-15.752l2.309-1.274c1.624 1.703 3.17 3.484 4.602 5.366 8.447 11.101 13.1 24.894 13.1 38.838v2.737c0 4.142 3.358 7.5 7.5 7.5s7.5-3.358 7.5-7.5v-2.737c0-17.206-5.74-34.225-16.163-47.922-4.178-5.49-9.039-10.378-14.469-14.589v-131.115c0-37.792-30.746-68.538-68.538-68.538h-4.353c-37.792 0-68.538 30.746-68.538 68.538v140.809c-12.768 14.244-20.228 32.936-20.228 52.818v50.167h-22.936v-272.87c0-4.142-3.358-7.5-7.5-7.5s-7.5 3.358-7.5 7.5v280.37c0 4.142 3.358 7.5 7.5 7.5h252.16c4.142 0 7.5-3.358 7.5-7.5v-347.545c.003-4.142-3.355-7.5-7.497-7.5zm-186.497 190.686c5.715 5.871 12.779 10.419 20.687 13.14v17.328l-8.62 3.788c-4.257 1.87-8.284 4.095-12.067 6.618zm0-79.58c14.285-6.308 27.288-15.723 37.721-27.332l.105-.116.104.116c10.434 11.61 23.437 21.025 37.721 27.333v42.757c0 20.857-16.969 37.825-37.826 37.825s-37.825-16.968-37.825-37.825zm10.01 131.84c2.569-1.599 5.268-3.031 8.092-4.272l13.103-5.757c2.724-1.197 4.483-3.891 4.483-6.866v-19.409c.71.028 1.422.047 2.139.047 14.819 0 28.223-6.142 37.825-16.003v63.604c-22.209 3-45.034-.781-65.642-11.344zm43.528-192.733h4.353c29.521 0 53.538 24.017 53.538 53.538v139.348c-6.726 3.422-13.685 6.114-20.777 8.095v-142.39c0-4.662-2.781-8.832-7.087-10.624-13.083-5.444-25.005-13.892-34.478-24.433l-2.144-2.386c-2.321-2.583-5.645-4.064-9.117-4.063-3.473 0-6.795 1.481-9.115 4.063l-2.145 2.386c-7.292 8.115-16.041 14.982-25.649 20.201 4.619-24.853 26.45-43.735 52.621-43.735zm-45.808 294.743c0-5.004 4.072-9.076 9.076-9.076h24.249c5.004 0 9.076 4.072 9.076 9.076v2.59h-42.401z"/></g></svg>