<svg id="Capa_1" enable-background="new 0 0 512 512" height="512" viewBox="0 0 512 512" width="512" xmlns="http://www.w3.org/2000/svg"><path d="m453.021 16.462c-15.333-10.616-35.449-16.462-56.641-16.462s-41.308 5.846-56.641 16.462c-11.849 8.203-20.105 18.919-23.943 30.635h-70.19v-25.118h-92.796v78.493h-16.222v61.749h-31.27v61.488l-9.153 5.145c-32.74 18.399-55.226 50.169-61.692 87.164s3.91 74.509 28.468 102.923l42.377 49.032v44.027h187.778v-44.027l42.377-49.032c24.558-28.414 34.934-65.928 28.468-102.923s-28.952-68.765-61.691-87.164l-9.154-5.145v-61.488h-31.27v-61.749h-16.222v-23.375h70.19c3.838 11.715 12.094 22.432 23.943 30.635 15.333 10.615 35.449 16.461 56.641 16.461s41.308-5.846 56.641-16.461c16.769-11.609 26.387-28.243 26.387-45.635.001-17.393-9.616-34.026-26.385-45.635zm-140.244 382.861-49.68 57.481v25.196h-127.778v-25.195l-49.68-57.481c-18.645-21.572-26.522-50.053-21.613-78.141.189-1.083.403-2.159.629-3.23h269.108c.225 1.071.439 2.147.629 3.23 4.907 28.088-2.97 56.568-21.615 78.14zm-25.225-144.317c14.276 8.023 25.977 19.399 34.287 32.946h-245.263c8.311-13.548 20.012-24.923 34.287-32.946l24.456-13.744v-49.041h127.778v49.041zm-120.963-92.785v-31.749h65.239v31.749zm16.221-61.749v-48.493h32.795v48.493zm213.57-6.28c-28.249 0-53.028-14.998-53.028-32.096s24.779-32.096 53.028-32.096 53.028 14.998 53.028 32.097c-.001 17.097-24.78 32.095-53.028 32.095z"/></svg>