<?xml version="1.0" encoding="iso-8859-1"?>
<!-- Generator: Adobe Illustrator 19.0.0, SVG Export Plug-In . SVG Version: 6.00 Build 0)  -->
<svg version="1.1" id="Capa_1" xmlns="http://www.w3.org/2000/svg" xmlns:xlink="http://www.w3.org/1999/xlink" x="0px" y="0px"
	 viewBox="0 0 511.999 511.999" style="enable-background:new 0 0 511.999 511.999;" xml:space="preserve">
<g>
	<g>
		<path d="M462.269,455.238h-20.87v-35.435c0-4.151-3.365-7.516-7.516-7.516s-7.516,3.365-7.516,7.516v35.435H85.632V185.399
			c0-10.394,0.943-20.801,2.8-30.933c0.21-1.149,0.433-2.295,0.666-3.437c0.832-4.066-1.79-8.038-5.857-8.87
			c-4.062-0.829-8.038,1.791-8.869,5.857c-0.255,1.24-0.495,2.486-0.725,3.737c-2.022,11.025-3.047,22.345-3.047,33.645v269.839
			h-20.87c-6.907,0-12.527,5.619-12.527,12.527v31.708c0,6.907,5.62,12.527,12.527,12.527h412.538
			c6.907,0,12.527-5.619,12.527-12.527v-31.708C474.796,460.858,469.176,455.238,462.269,455.238z M459.764,496.968h-0.001H52.236
			V470.27h407.527V496.968z"/>
	</g>
</g>
<g>
	<g>
		<path d="M255.999,0C187.955,0,125.491,37.176,92.981,97.022c-1.981,3.647-0.63,8.211,3.017,10.192
			c3.649,1.979,8.211,0.629,10.193-3.017c29.876-54.999,87.279-89.165,149.808-89.165c93.941,0,170.367,76.426,170.367,170.367
			v181.04c0,4.151,3.365,7.516,7.516,7.516s7.516-3.365,7.516-7.516v-181.04C441.398,83.17,358.228,0,255.999,0z"/>
	</g>
</g>
<g>
	<g>
		<path d="M366.48,281.97H145.52c-4.152,0-7.516,3.364-7.516,7.516c0,4.151,3.365,7.516,7.516,7.516h220.96
			c4.151,0,7.516-3.365,7.516-7.516S370.631,281.97,366.48,281.97z"/>
	</g>
</g>
<g>
	<g>
		<path d="M366.48,325.561H145.52c-4.151,0-7.516,3.365-7.516,7.516s3.364,7.516,7.516,7.516h220.96
			c4.151,0,7.516-3.365,7.516-7.516S370.631,325.561,366.48,325.561z"/>
	</g>
</g>
<g>
	<g>
		<path d="M366.48,369.152H145.52c-4.151,0-7.516,3.365-7.516,7.516s3.364,7.516,7.516,7.516h220.96
			c4.151,0,7.516-3.365,7.516-7.516S370.631,369.152,366.48,369.152z"/>
	</g>
</g>
<g>
	<g>
		<path d="M299.829,112.712h-18.275V81.673c0-6.907-5.62-12.526-12.527-12.526h-26.054c-6.907,0-12.527,5.619-12.527,12.527v31.039
			h-18.275c-6.907,0-12.527,5.619-12.527,12.527v26.054c0,6.907,5.619,12.527,12.527,12.527h18.275v60.726
			c0,6.907,5.619,12.527,12.527,12.527h26.054c6.907,0,12.527-5.619,12.527-12.527V163.82h18.275
			c6.907,0,12.527-5.619,12.527-12.527v-26.054C312.356,118.332,306.737,112.712,299.829,112.712z M297.324,148.788h-23.286
			c-4.151,0-7.516,3.365-7.516,7.516v65.736h-21.043v-65.737c0-4.151-3.365-7.516-7.516-7.516h-23.286v-21.043h23.286
			c4.151,0,7.516-3.365,7.516-7.516v-36.05h21.043v36.05c0,4.151,3.365,7.516,7.516,7.516h23.286V148.788z"/>
	</g>
</g>
<g>
</g>
<g>
</g>
<g>
</g>
<g>
</g>
<g>
</g>
<g>
</g>
<g>
</g>
<g>
</g>
<g>
</g>
<g>
</g>
<g>
</g>
<g>
</g>
<g>
</g>
<g>
</g>
<g>
</g>
</svg>
