<svg id="_x33_0" enable-background="new 0 0 64 64" height="512" viewBox="0 0 64 64" width="512" xmlns="http://www.w3.org/2000/svg"><path d="m57.95 56.536c-2.729-2.729-7.17-2.729-9.899 0l-2.272 2.272c-1.415 1.413-3.294 2.192-5.294 2.192h-1c-4.127 0-7.485-3.358-7.485-7.485 0-2 .779-3.879 2.192-5.293l20.015-20.015c2.459-2.459 3.813-5.729 3.813-9.207 0-1.087-.147-2.15-.404-3.178l2.76-3.036c1.045-1.149 1.624-2.647 1.624-4.2 0-1.656-.658-3.244-1.829-4.415l-.343-.343c-1.17-1.17-2.758-1.828-4.414-1.828-1.553 0-3.051.579-4.2 1.624l-5.514 5.013c-2.357 2.142-3.7 5.178-3.7 8.363l-39.616 42.587c-.247.265-.384.615-.384.977 0 .793.643 1.436 1.436 1.436.363 0 .712-.137.978-.384l42.586-39.616c3.185 0 6.221-1.343 8.363-3.7l.57-.627c.052.438.088.879.088 1.326 0 2.944-1.146 5.711-3.228 7.793l-20.015 20.016c-1.791 1.791-2.778 4.173-2.778 6.707 0 5.23 4.255 9.485 9.485 9.485h1c2.534 0 4.916-.987 6.707-2.778l2.272-2.272c1.949-1.949 5.122-1.949 7.071 0l4.757 4.757 1.414-1.414zm-4.957-41.524c-1.333 1.467-2.447 1.902-4.229 1.986-.474.022-.942-.148-1.278-.484s-.507-.804-.484-1.278c.084-1.781.519-2.895 1.986-4.229l1.598-1.439c.183.085.371.176.533.263.598.4 1.161.863 1.674 1.376.657.657 1.21 1.39 1.674 2.168zm2.873-3.19c-.479-.722-1.032-1.402-1.659-2.029-.6-.6-1.26-1.142-2.032-1.656l1.725-1.553c.414-.376.951-.584 1.51-.584.6 0 1.164.234 1.588.658l.343.343c.425.424.659.988.659 1.588 0 .56-.208 1.097-.585 1.512z"/><path d="m14.243 32c1.4 0 2.717-.545 3.707-1.536l18.755-18.755c1.767-1.756 4.191-2.977 6.585-3.453.334-.384.685-.755 1.065-1.1l1.239-1.127c-3.592-.064-7.56 1.54-10.301 4.263l-18.757 18.758c-.613.613-1.427.95-2.293.95-1.788 0-3.243-1.455-3.243-3.243v-4.757h-2v4.757c0 2.891 2.352 5.243 5.243 5.243z"/></svg>