<svg id="Layer_1" enable-background="new 0 0 512.082 512.082" height="512" viewBox="0 0 512.082 512.082" width="512" xmlns="http://www.w3.org/2000/svg"><g><g><path d="m509.273 88.836c-3.512-26.937-15.146-45.52-34.578-55.234-38.776-19.387-106.07-1.614-205.671 54.312h-25.966c-99.603-55.927-166.897-73.694-205.672-54.312-19.432 9.715-31.066 28.298-34.577 55.234-5.003 38.365-7.621 107.925 31.048 142.738 15.046 13.545 34.782 19.452 54.782 19.451 5.318 0 10.856-.386 16.601-1.143-2.741 10.5-4.2 21.475-4.2 32.732v129.998c0 3.933 2.305 7.5 5.889 9.116 3.584 1.614 7.784.981 10.731-1.621l53.38-47.151 53.38 47.151c1.864 1.646 4.229 2.505 6.622 2.505 1.391 0 2.792-.29 4.109-.884 3.584-1.616 5.889-5.184 5.889-9.116v-189.995h30.002v76.55c0 5.522 4.478 10 10 10s10-4.478 10-10v-81.731c4.59-2.62 8.658-6.141 12.003-10.337 16.81 14.364 27.996 43.751 27.996 75.516 0 5.522 4.478 10 10 10s10-4.478 10-10c0-40.297-15.511-76.802-39.26-94.039.68-3.154 1.051-6.432 1.051-9.802v-1.425c45.918 13.901 78.21 56.509 78.21 105.266l-.001 171.257-43.38-38.318c-3.781-3.34-9.459-3.34-13.24 0l-43.38 38.318v-64.705c0-5.522-4.478-10-10-10s-10 4.478-10 10v86.881c0 3.933 2.305 7.5 5.89 9.116s7.784.981 10.73-1.621l53.38-47.151 53.38 47.151c1.864 1.646 4.229 2.505 6.622 2.505 1.391 0 2.791-.29 4.108-.884 3.585-1.616 5.89-5.184 5.89-9.116l.001-193.433c0-11.254-1.462-22.229-4.208-32.732 5.748.758 11.287 1.142 16.608 1.142 19.981 0 39.705-5.896 54.744-19.417 38.709-34.799 36.092-104.388 31.087-142.772zm-290.024 89.939v-47.02c0-13.146 9.508-23.842 21.194-23.842h31.196c11.686 0 21.193 10.695 21.193 23.842v47.02c0 13.146-9.508 23.843-21.193 23.843h-31.196c-11.686-.001-21.194-10.697-21.194-23.843zm-196.608-87.353c2.636-20.219 10.385-33.28 23.688-39.931 20.9-10.451 67.321-10.515 170.145 44.642-6.528 4.99-11.634 11.953-14.538 20.069-17.322-6.094-33.591-11.225-48.454-15.278-5.327-1.451-10.825 1.688-12.279 7.017s1.688 10.825 7.016 12.278c15.518 4.233 32.681 9.707 51.029 16.259v20.105c-5.444 1.375-10.739 3.087-15.865 5.11-29.91-7.546-95.631-19.528-128.673 9.97-9.629 8.595-15.52 19.662-17.647 33.055-21.757-33.206-17.614-88.815-14.422-113.296zm33.855 131.929c-1.529-16.417 2.252-28.483 11.534-36.769 15.632-13.956 47.739-17.492 88.304-10.294-18.755 13.208-33.739 31.179-43.352 51.984-23.134 4.856-42.063 3.199-56.486-4.921zm121.164 128.768c-3.781-3.34-9.459-3.34-13.24 0l-43.38 38.318v-107.821c0-48.812 32.275-91.373 78.209-105.265v1.424c0 3.829.467 7.543 1.337 11.086-14.111 10.905-24.616 28.656-29.295 49.901-1.188 5.395 2.222 10.729 7.615 11.917.725.16 1.448.236 2.16.236 4.592 0 8.729-3.182 9.757-7.852 3.271-14.853 10.176-27.65 19.088-35.889 3.17 3.726 6.934 6.867 11.129 9.262v173.002zm221.42-123.849c-9.619-20.794-24.606-38.766-43.355-51.976 40.575-7.203 72.693-3.669 88.327 10.289 9.281 8.286 13.062 20.352 11.533 36.768-14.426 8.121-33.362 9.775-56.505 4.919zm75.937-23.553c-2.127-13.392-8.017-24.459-17.646-33.055-33.048-29.502-98.789-17.509-128.682-9.968-5.124-2.024-10.417-3.735-15.857-5.11v-20.206c12.401-4.396 24.283-8.312 35.391-11.662 5.288-1.596 8.281-7.175 6.687-12.462s-7.176-8.277-12.462-6.687c-10.214 3.081-21.057 6.628-32.328 10.566-2.908-8.087-8.003-15.026-14.513-20.001 102.822-55.155 149.247-55.092 170.145-44.64 13.305 6.65 21.053 19.712 23.689 39.931 3.193 24.485 7.334 80.09-14.424 113.294z"/><path d="m106.399 113.552c5.523 0 10-4.478 10-10s-4.477-10-10-10h-.008c-5.523 0-9.996 4.478-9.996 10s4.481 10 10.004 10z"/><path d="m281.042 354.167c5.522 0 10-4.478 10-10s-4.478-10-10-10h-.008c-5.522 0-9.996 4.478-9.996 10s4.482 10 10.004 10z"/></g></g></svg>