<?xml version="1.0" encoding="utf-8"?>
<!-- Generator: Adobe Illustrator 23.0.2, SVG Export Plug-In . SVG Version: 6.00 Build 0)  -->
<svg version="1.1" id="Capa_1" xmlns="http://www.w3.org/2000/svg" xmlns:xlink="http://www.w3.org/1999/xlink" x="0px" y="0px"
	 viewBox="0 0 100 100" style="enable-background:new 0 0 100 100;" xml:space="preserve">
<style type="text/css">
	.st0{fill:#000000;}
</style>
<g>
	<g>
		<path class="st0" d="M94.3,49.4c-3.2-2.6-8.2-2.8-11.4,0.7l-8.1,8.7c-1.1-3.4-4.2-5.8-7.9-5.8l-14.5,0c-1.1,0-1.5-0.4-3.4-1.9
			c-7.3-6.4-18.3-6.3-25.5,0.1L18,55.8c-2.4-1.3-5.2-1.3-7.6-0.1l-6.1,3.1c-1.4,0.7-1.9,2.3-1.2,3.7l16.6,33.2
			c0.7,1.4,2.3,1.9,3.7,1.2l6.1-3.1c3-1.5,4.7-4.6,4.6-7.7l32.7,0c6.1,0,11.9-2.9,15.5-7.7l13.3-17.7C98.1,57.3,97.7,52.2,94.3,49.4
			z M27,88.9l-3.6,1.8L9.2,62.5l3.6-1.8c1.4-0.7,3-0.1,3.7,1.2l11.7,23.3C28.9,86.6,28.4,88.2,27,88.9z M91.1,57.4L77.9,75.1
			c-2.6,3.5-6.7,5.5-11.1,5.5H32.2L21.8,59.9l5.2-4.6c5.2-4.6,13.1-4.6,18.3,0c3.1,2.7,5,3.2,7,3.2l14.5,0c1.5,0,2.8,1.2,2.8,2.8
			S68.3,64,66.8,64H52.7c-1.5,0-2.8,1.2-2.8,2.8c0,1.5,1.2,2.8,2.8,2.8l16,0c2.3,0,4.5-1,6.1-2.6l12.2-13.1c1.1-1.2,2.8-1.1,3.9-0.2
			C91.9,54.6,92,56.3,91.1,57.4z"/>
	</g>
</g>
<g>
	<g>
		<path class="st0" d="M61,21.7c1.9-2,3.1-4.7,3.1-7.6c0-6.1-4.9-11.3-11.1-11.3c-6.1,0-11.3,5.2-11.3,11.3c0,2.9,1.1,5.6,3.2,7.7
			c-5.1,2.8-8.7,8.3-8.7,14.7v2.8c0,1.5,1.2,2.8,2.8,2.8l27.9,0c1.5,0,2.8-1.2,2.8-2.8v-2.8C69.6,30.1,66.1,24.6,61,21.7z M52.9,8.3
			c3,0,5.5,2.6,5.5,5.7c0,3.1-2.5,5.5-5.5,5.5c-3.1,0-5.7-2.5-5.7-5.5C47.2,11,49.9,8.3,52.9,8.3z M41.7,36.3
			c0-6.1,5.2-11.3,11.3-11.3c6.1,0,11.1,5,11.1,11.3L41.7,36.3z"/>
	</g>
</g>
</svg>
