<svg height="512" viewBox="0 0 512 512" width="512" xmlns="http://www.w3.org/2000/svg"><g id="outline"><path d="m336 352h16v16h-16z"/><path d="m336 320h16v16h-16z"/><path d="m368 352h16v16h-16z"/><path d="m368 320h16v16h-16z"/><path d="m400 352h16v16h-16z"/><path d="m400 320h16v16h-16z"/><path d="m432 352h16v16h-16z"/><path d="m432 320h16v16h-16z"/><path d="m160 352h16v16h-16z"/><path d="m160 320h16v16h-16z"/><path d="m128 352h16v16h-16z"/><path d="m128 320h16v16h-16z"/><path d="m96 352h16v16h-16z"/><path d="m96 320h16v16h-16z"/><path d="m64 352h16v16h-16z"/><path d="m64 320h16v16h-16z"/><path d="m488 256h-120v-32a8 8 0 0 0 -8-8h-24v-24a8 8 0 0 0 -8-8h-8.8a65.3 65.3 0 0 0 -55.2-47.507v-24.493h24a8 8 0 0 0 8 8h32a8 8 0 0 0 8-8v-32a8 8 0 0 0 -8-8h-24v-8a8 8 0 0 0 -8-8h-40a8 8 0 0 0 -8 8v72.493a65.3 65.3 0 0 0 -55.2 47.507h-8.8a8 8 0 0 0 -8 8v24h-24a8 8 0 0 0 -8 8v32h-120a8 8 0 0 0 -8 8v32a8 8 0 0 0 8 8h8v136a8 8 0 0 0 8 8h432a8 8 0 0 0 8-8v-136h8a8 8 0 0 0 8-8v-32a8 8 0 0 0 -8-8zm-184-168h16v16h-16zm-40-16h24v24h-24zm88 160v17.684l-28.736-17.684zm-32-32v16h-22.736l-26-16zm-17.591-16h-14.909a65.224 65.224 0 0 0 -9.49-26.9 49.331 49.331 0 0 1 24.399 26.9zm-47.781-27.314 1.372-1.372 1.372 1.372a49.562 49.562 0 0 1 13.983 27.314h-30.71a49.562 49.562 0 0 1 13.983-27.314zm-20.641.414a65.224 65.224 0 0 0 -9.487 26.9h-14.909a49.331 49.331 0 0 1 24.396-26.9zm-41.987 42.9h48.736l-26 16h-22.736zm-32 32h28.736l-28.736 17.684zm-128 56v-16h152v16zm64 144h-16v-24a8 8 0 0 1 16 0zm64 0h-16v-24a8 8 0 0 1 16 0zm32 0h-16v-24a24 24 0 0 0 -48 0v24h-16v-24a24 24 0 0 0 -48 0v24h-16v-128h144zm32 0h-16v-128h16zm48 0h-32v-43.719l16-10.666 16 10.666zm0-62.948-11.562-7.708a8 8 0 0 0 -8.876 0l-11.562 7.708v-65.052h32zm32 62.948h-16v-128h16zm8-144h-112v-16h112zm-81.876-32 25.876-14.786 25.876 14.786zm29.845-30.946a8 8 0 0 0 -7.938 0l-54.155 30.946h-17.611l75.735-46.606 75.735 46.606h-17.611zm108.031 206.946h-16v-24a8 8 0 0 1 16 0zm64 0h-16v-24a8 8 0 0 1 16 0zm32 0h-16v-24a24 24 0 0 0 -48 0v24h-16v-24a24 24 0 0 0 -48 0v24h-16v-128h144zm16-144h-152v-16h152z"/></g></svg>