<svg id="Capa_1" enable-background="new 0 0 512 512" height="512" viewBox="0 0 512 512" width="512" xmlns="http://www.w3.org/2000/svg"><g><circle cx="346" cy="136" r="45"/><circle cx="256" cy="196" r="45"/><circle cx="436" cy="196" r="45"/><path d="m253.964 378.988c13.052 8.628 28.711 1.978 45.308-5.112 14.135-6.035 30.146-12.876 46.728-12.876s32.593 6.841 46.729 12.876c15.239 6.511 31.821 14.044 45.308 5.112 11.615-7.661 12.963-22.5 12.963-32.988 0-57.891-47.109-105-105-105s-105 47.109-105 105c0 10.488 1.348 25.327 12.964 32.988z"/><path d="m106 0v108.959c0 11.909-5.918 22.954-15.82 29.561-18.267 12.187-29.18 32.563-29.18 54.521v167.959h120v-167.959c0-21.958-10.913-42.334-29.18-54.521-9.902-6.606-15.82-17.651-15.82-29.561v-108.959z"/><path d="m211 421v-30h-180v30h75v61h-45v30h120v-30h-45v-61z"/></g></svg>