<svg id="Capa_1" enable-background="new 0 0 512.019 512.019" height="512" viewBox="0 0 512.019 512.019" width="512" xmlns="http://www.w3.org/2000/svg"><g><path d="m256.009 332.428c-10.833 0-19.647 8.813-19.647 19.647 0 10.833 8.813 19.646 19.647 19.646s19.647-8.813 19.647-19.646-8.813-19.647-19.647-19.647z"/><path d="m144.281 352.724c0-29.844 11.623-57.899 32.726-79 21.099-21.096 49.153-32.715 78.988-32.715.012 0 .02.001.029 0 21.825 0 42.343-8.498 57.776-23.93 15.437-15.434 23.938-35.956 23.938-57.785 0-45.063-36.663-81.725-81.729-81.725-98.498 0-178.631 80.048-178.631 178.439 0 61.839 31.659 116.424 79.63 148.452-8.122-15.476-12.727-33.077-12.727-51.736zm111.728-243.08c27.375 0 49.647 22.271 49.647 49.646s-22.271 49.646-49.647 49.646-49.647-22.271-49.647-49.646 22.272-49.646 49.647-49.646z"/><circle cx="256.009" cy="159.291" r="19.647"/><path d="m355.012 107.558c8.122 15.478 12.726 33.078 12.726 51.736 0 29.844-11.623 57.899-32.726 79-21.099 21.096-49.153 32.714-78.988 32.715-.011.001-.02.001-.029 0-21.825 0-42.342 8.498-57.776 23.93-15.437 15.434-23.938 35.956-23.938 57.785 0 45.058 36.657 81.715 81.715 81.715v.01h.013c98.498 0 178.631-80.048 178.631-178.439.001-61.839-31.657-116.424-79.628-148.452zm-99.003 294.164c-27.375 0-49.647-22.271-49.647-49.646 0-27.376 22.271-49.647 49.647-49.647s49.647 22.271 49.647 49.647c0 27.375-22.271 49.646-49.647 49.646z"/><path d="m256.009.168c-141.164 0-256.009 114.77-256.009 255.841s114.845 255.841 256.009 255.841 256.009-114.77 256.009-255.841-114.845-255.841-256.009-255.841zm0 464.281c-115.04 0-208.631-93.506-208.631-208.439s93.592-208.44 208.631-208.44 208.631 93.506 208.631 208.439-93.591 208.44-208.631 208.44z"/></g></svg>